<svg width="31" height="33" viewBox="0 0 31 33" fill="none" xmlns="http://www.w3.org/2000/svg">
<path d="M2.07143 32C2.07143 32.5523 2.51914 33 3.07143 33C3.62371 33 4.07143 32.5523 4.07143 32H2.07143ZM2.07143 10.6875L2.07143 32H4.07143L4.07143 10.6875H2.07143Z" fill="#D9D9D9"/>
<path d="M20.6786 33C21.2309 33 21.6786 32.5523 21.6786 32C21.6786 31.4477 21.2309 31 20.6786 31V33ZM3.07143 33L20.6786 33V31L3.07143 31L3.07143 33Z" fill="#D9D9D9"/>
<path d="M16.1756 1.73725C16.6065 1.39179 16.6533 0.78166 16.2802 0.374485C15.9071 -0.0326896 15.2553 -0.0827173 14.8244 0.262745L16.1756 1.73725ZM1.67561 13.3623L16.1756 1.73725L14.8244 0.262745L0.324385 11.8877L1.67561 13.3623Z" fill="#D9D9D9"/>
<path d="M28.9286 32C28.9286 32.5523 28.4809 33 27.9286 33C27.3763 33 26.9286 32.5523 26.9286 32H28.9286ZM28.9286 10.6875V32H26.9286V10.6875H28.9286Z" fill="#D9D9D9"/>
<path d="M14.8244 1.73725C14.3935 1.39179 14.3467 0.78166 14.7198 0.374485C15.0929 -0.0326896 15.7447 -0.0827173 16.1756 0.262745L14.8244 1.73725ZM29.3244 13.3623L14.8244 1.73725L16.1756 0.262745L30.6756 11.8877L29.3244 13.3623Z" fill="#D9D9D9"/>
</svg>
